<svg width="350" height="342" viewBox="0 0 350 342" fill="none" xmlns="http://www.w3.org/2000/svg">
<rect width="350" height="342" fill="#CCCCCC"/>
<path d="M95.1 204.8C93.0333 204.8 91.4333 204.233 90.3 203.1C89.2333 201.9 88.7 200.267 88.7 198.2V139.3C88.7 137.167 89.2333 135.533 90.3 134.4C91.4333 133.267 93.0333 132.7 95.1 132.7C97.1667 132.7 98.7333 133.267 99.8 134.4C100.933 135.533 101.5 137.167 101.5 139.3V198.2C101.5 200.267 100.967 201.9 99.9 203.1C98.8333 204.233 97.2333 204.8 95.1 204.8ZM122.923 204.8C121.056 204.8 119.623 204.267 118.623 203.2C117.623 202.133 117.123 200.667 117.123 198.8V138.7C117.123 136.767 117.656 135.3 118.723 134.3C119.789 133.233 121.256 132.7 123.123 132.7C124.789 132.7 126.089 133.033 127.023 133.7C128.023 134.3 128.923 135.367 129.723 136.9L154.423 182.6H151.223L175.923 136.9C176.723 135.367 177.589 134.3 178.523 133.7C179.456 133.033 180.756 132.7 182.423 132.7C184.289 132.7 185.723 133.233 186.723 134.3C187.723 135.3 188.223 136.767 188.223 138.7V198.8C188.223 200.667 187.723 202.133 186.723 203.2C185.789 204.267 184.356 204.8 182.423 204.8C180.556 204.8 179.123 204.267 178.123 203.2C177.123 202.133 176.623 200.667 176.623 198.8V152.5H178.823L157.823 190.8C157.156 191.933 156.456 192.767 155.723 193.3C154.989 193.833 153.989 194.1 152.723 194.1C151.456 194.1 150.423 193.833 149.623 193.3C148.823 192.7 148.123 191.867 147.523 190.8L126.323 152.4H128.723V198.8C128.723 200.667 128.223 202.133 127.223 203.2C126.289 204.267 124.856 204.8 122.923 204.8ZM237.639 205C229.839 205 223.239 203.533 217.839 200.6C212.506 197.667 208.439 193.5 205.639 188.1C202.839 182.7 201.439 176.3 201.439 168.9C201.439 163.3 202.239 158.267 203.839 153.8C205.506 149.333 207.872 145.533 210.939 142.4C214.072 139.2 217.872 136.767 222.339 135.1C226.806 133.367 231.872 132.5 237.539 132.5C241.272 132.5 245.006 132.967 248.739 133.9C252.539 134.767 256.106 136.267 259.439 138.4C260.572 139.133 261.306 140.033 261.639 141.1C262.039 142.167 262.106 143.267 261.839 144.4C261.572 145.467 261.072 146.4 260.339 147.2C259.606 148 258.672 148.5 257.539 148.7C256.472 148.9 255.272 148.633 253.939 147.9C251.406 146.433 248.839 145.367 246.239 144.7C243.639 144.033 240.739 143.7 237.539 143.7C232.606 143.7 228.439 144.7 225.039 146.7C221.639 148.633 219.072 151.467 217.339 155.2C215.672 158.933 214.839 163.5 214.839 168.9C214.839 177.1 216.806 183.333 220.739 187.6C224.672 191.867 230.506 194 238.239 194C240.906 194 243.606 193.733 246.339 193.2C249.072 192.667 251.739 191.933 254.339 191L251.839 196.7V175.4H240.839C239.172 175.4 237.872 174.967 236.939 174.1C236.072 173.233 235.639 172.067 235.639 170.6C235.639 169.067 236.072 167.9 236.939 167.1C237.872 166.3 239.172 165.9 240.839 165.9H257.339C259.006 165.9 260.272 166.367 261.139 167.3C262.072 168.167 262.539 169.433 262.539 171.1V195.4C262.539 196.867 262.239 198.1 261.639 199.1C261.106 200.1 260.206 200.833 258.939 201.3C256.006 202.367 252.639 203.267 248.839 204C245.039 204.667 241.306 205 237.639 205Z" fill="#101010"/>
</svg>
