<svg width="24" height="25" viewBox="0 0 24 25" fill="none" xmlns="http://www.w3.org/2000/svg">
<g clip-path="url(#clip0_1525_1504)">
<path d="M12 15.625C13.6569 15.625 15 14.2819 15 12.625C15 10.9681 13.6569 9.625 12 9.625C10.3431 9.625 9 10.9681 9 12.625C9 14.2819 10.3431 15.625 12 15.625Z" stroke="#777777" stroke-width="2" stroke-linecap="round" stroke-linejoin="round"/>
<path d="M19.4 15.625C19.2669 15.9266 19.2272 16.2612 19.286 16.5856C19.3448 16.91 19.4995 17.2093 19.73 17.445L19.79 17.505C19.976 17.6907 20.1235 17.9113 20.2241 18.1541C20.3248 18.3969 20.3766 18.6572 20.3766 18.92C20.3766 19.1828 20.3248 19.4431 20.2241 19.6859C20.1235 19.9287 19.976 20.1493 19.79 20.335C19.6043 20.521 19.3837 20.6685 19.1409 20.7691C18.8981 20.8698 18.6378 20.9216 18.375 20.9216C18.1122 20.9216 17.8519 20.8698 17.6091 20.7691C17.3663 20.6685 17.1457 20.521 16.96 20.335L16.9 20.275C16.6643 20.0445 16.365 19.8898 16.0406 19.831C15.7162 19.7722 15.3816 19.8119 15.08 19.945C14.7842 20.0718 14.532 20.2822 14.3543 20.5505C14.1766 20.8188 14.0813 21.1332 14.08 21.455V21.625C14.08 22.1554 13.8693 22.6641 13.4942 23.0392C13.1191 23.4143 12.6104 23.625 12.08 23.625C11.5496 23.625 11.0409 23.4143 10.6658 23.0392C10.2907 22.6641 10.08 22.1554 10.08 21.625V21.535C10.0723 21.204 9.96512 20.883 9.77251 20.6137C9.5799 20.3444 9.31074 20.1393 9 20.025C8.69838 19.8919 8.36381 19.8522 8.03941 19.911C7.71502 19.9698 7.41568 20.1245 7.18 20.355L7.12 20.415C6.93425 20.601 6.71368 20.7485 6.47088 20.8491C6.22808 20.9498 5.96783 21.0016 5.705 21.0016C5.44217 21.0016 5.18192 20.9498 4.93912 20.8491C4.69632 20.7485 4.47575 20.601 4.29 20.415C4.10405 20.2293 3.95653 20.0087 3.85588 19.7659C3.75523 19.5231 3.70343 19.2628 3.70343 19C3.70343 18.7372 3.75523 18.4769 3.85588 18.2341C3.95653 17.9913 4.10405 17.7707 4.29 17.585L4.35 17.525C4.58054 17.2893 4.73519 16.99 4.794 16.6656C4.85282 16.3412 4.81312 16.0066 4.68 15.705C4.55324 15.4092 4.34276 15.157 4.07447 14.9793C3.80618 14.8016 3.49179 14.7063 3.17 14.705H3C2.46957 14.705 1.96086 14.4943 1.58579 14.1192C1.21071 13.7441 1 13.2354 1 12.705C1 12.1746 1.21071 11.6659 1.58579 11.2908C1.96086 10.9157 2.46957 10.705 3 10.705H3.09C3.42099 10.6973 3.742 10.5901 4.0113 10.3975C4.28059 10.2049 4.48572 9.93574 4.6 9.625C4.73312 9.32338 4.77282 8.98881 4.714 8.66441C4.65519 8.34002 4.50054 8.04068 4.27 7.805L4.21 7.745C4.02405 7.55925 3.87653 7.33868 3.77588 7.09588C3.67523 6.85308 3.62343 6.59283 3.62343 6.33C3.62343 6.06717 3.67523 5.80692 3.77588 5.56412C3.87653 5.32132 4.02405 5.10075 4.21 4.915C4.39575 4.72905 4.61632 4.58153 4.85912 4.48088C5.10192 4.38023 5.36217 4.32843 5.625 4.32843C5.88783 4.32843 6.14808 4.38023 6.39088 4.48088C6.63368 4.58153 6.85425 4.72905 7.04 4.915L7.1 4.975C7.33568 5.20554 7.63502 5.36019 7.95941 5.419C8.28381 5.47782 8.61838 5.43812 8.92 5.305H9C9.29577 5.17824 9.54802 4.96776 9.72569 4.69947C9.90337 4.43118 9.99872 4.11679 10 3.795V3.625C10 3.09457 10.2107 2.58586 10.5858 2.21079C10.9609 1.83571 11.4696 1.625 12 1.625C12.5304 1.625 13.0391 1.83571 13.4142 2.21079C13.7893 2.58586 14 3.09457 14 3.625V3.715C14.0013 4.03679 14.0966 4.35118 14.2743 4.61947C14.452 4.88776 14.7042 5.09824 15 5.225C15.3016 5.35812 15.6362 5.39782 15.9606 5.339C16.285 5.28019 16.5843 5.12554 16.82 4.895L16.88 4.835C17.0657 4.64905 17.2863 4.50153 17.5291 4.40088C17.7719 4.30023 18.0322 4.24843 18.295 4.24843C18.5578 4.24843 18.8181 4.30023 19.0609 4.40088C19.3037 4.50153 19.5243 4.64905 19.71 4.835C19.896 5.02075 20.0435 5.24132 20.1441 5.48412C20.2448 5.72692 20.2966 5.98717 20.2966 6.25C20.2966 6.51283 20.2448 6.77308 20.1441 7.01588C20.0435 7.25868 19.896 7.47925 19.71 7.665L19.65 7.725C19.4195 7.96068 19.2648 8.26002 19.206 8.58441C19.1472 8.90881 19.1869 9.24338 19.32 9.545V9.625C19.4468 9.92077 19.6572 10.173 19.9255 10.3507C20.1938 10.5284 20.5082 10.6237 20.83 10.625H21C21.5304 10.625 22.0391 10.8357 22.4142 11.2108C22.7893 11.5859 23 12.0946 23 12.625C23 13.1554 22.7893 13.6641 22.4142 14.0392C22.0391 14.4143 21.5304 14.625 21 14.625H20.91C20.5882 14.6263 20.2738 14.7216 20.0055 14.8993C19.7372 15.077 19.5268 15.3292 19.4 15.625Z" stroke="#777777" stroke-width="2" stroke-linecap="round" stroke-linejoin="round"/>
</g>
<defs>
<clipPath id="clip0_1525_1504">
<rect width="24" height="24" fill="white" transform="translate(0 0.625)"/>
</clipPath>
</defs>
</svg>
