<svg width="272" height="272" viewBox="0 0 272 272" fill="none" xmlns="http://www.w3.org/2000/svg">
<g clip-path="url(#clip0_1674_2771)">
<mask id="mask0_1674_2771" style="mask-type:luminance" maskUnits="userSpaceOnUse" x="0" y="0" width="272" height="272">
<path d="M272 0H0V272H272V0Z" fill="white"/>
</mask>
<g mask="url(#mask0_1674_2771)">
<path d="M151.366 16.6589C143.43 6.9667 128.608 6.96673 120.674 16.6589L109.433 30.3887C108.662 31.3297 107.377 31.6741 106.239 31.2444L89.6396 24.9744C77.9215 20.5484 65.0855 27.9592 63.0594 40.3206L60.1895 57.8314C59.9927 59.0316 59.0519 59.9723 57.8516 60.1691L40.341 63.039C27.9797 65.0651 20.5687 77.901 24.9948 89.6192L31.2648 106.219C31.6945 107.357 31.3501 108.642 30.4091 109.412L16.6793 120.653C6.98709 128.589 6.98711 143.41 16.6793 151.346L30.4091 162.586C31.3501 163.357 31.6945 164.642 31.2648 165.78L24.9948 182.38C20.5688 194.098 27.9796 206.934 40.341 208.96L57.8516 211.83C59.0519 212.027 59.9927 212.968 60.1895 214.168L63.0594 231.678C65.0855 244.039 77.9214 251.45 89.6396 247.024L106.239 240.755C107.377 240.325 108.662 240.669 109.433 241.61L120.674 255.34C128.608 265.032 143.43 265.032 151.366 255.34L162.606 241.61C163.377 240.669 164.662 240.325 165.8 240.755L182.4 247.024C194.119 251.45 206.955 244.039 208.98 231.678L211.851 214.168C212.047 212.968 212.987 212.027 214.188 211.83L231.699 208.96C244.06 206.934 251.471 194.098 247.045 182.38L240.774 165.78C240.345 164.642 240.689 163.357 241.63 162.586L255.36 151.346C265.053 143.41 265.053 128.589 255.36 120.653L241.63 109.412C240.689 108.642 240.345 107.357 240.774 106.219L247.045 89.6192C251.471 77.901 244.06 65.0651 231.699 63.039L214.188 60.1691C212.987 59.9723 212.047 59.0316 211.851 57.8314L208.98 40.3206C206.955 27.9593 194.119 20.5483 182.4 24.9744L165.8 31.2444C164.662 31.6741 163.377 31.3297 162.606 30.3887L151.366 16.6589Z" fill="#B304FD"/>
<path fill-rule="evenodd" clip-rule="evenodd" d="M204.368 90.3229C207.688 93.6424 207.688 99.0243 204.368 102.344L125.035 181.677C123.441 183.271 121.279 184.167 119.025 184.167C116.771 184.167 114.608 183.271 113.014 181.677L67.681 136.343C64.3616 133.024 64.3616 127.643 67.681 124.323C71.0004 121.004 76.3824 121.004 79.7018 124.323L119.025 163.645L192.348 90.3229C195.667 87.0035 201.049 87.0035 204.368 90.3229Z" fill="#ECEFF1"/>
<path fill-rule="evenodd" clip-rule="evenodd" d="M136.014 9.38977V262.609C130.327 262.608 124.64 260.185 120.674 255.34L109.433 241.61C108.662 240.669 107.377 240.325 106.239 240.755L89.6396 247.024C77.9214 251.45 65.0855 244.039 63.0594 231.678L60.1895 214.168C59.9927 212.968 59.052 212.027 57.8516 211.83L40.341 208.96C27.9796 206.934 20.5688 194.098 24.9948 182.38L31.2648 165.78C31.6945 164.642 31.3501 163.357 30.4091 162.586L16.6793 151.346C6.98711 143.41 6.98709 128.589 16.6793 120.653L30.4091 109.412C31.3501 108.642 31.6945 107.357 31.2648 106.219L24.9948 89.6192C20.5687 77.901 27.9797 65.0651 40.341 63.039L57.8516 60.1691C59.052 59.9723 59.9927 59.0316 60.1895 57.8314L63.0594 40.3206C65.0855 27.9592 77.9215 20.5484 89.6396 24.9744L106.239 31.2444C107.377 31.6741 108.662 31.3297 109.433 30.3887L120.674 16.6589C124.64 11.8145 130.327 9.39152 136.014 9.38977Z" fill="#BB5CE4"/>
<path fill-rule="evenodd" clip-rule="evenodd" d="M136.025 146.645V170.688L125.035 181.676C123.441 183.271 121.279 184.166 119.025 184.166C116.771 184.166 114.608 183.271 113.014 181.676L67.681 136.343C64.3616 133.024 64.3616 127.643 67.681 124.323C71.0004 121.003 76.3824 121.003 79.7018 124.323L119.025 163.645L136.025 146.645Z" fill="#D4D6D8"/>
</g>
</g>
<defs>
<clipPath id="clip0_1674_2771">
<rect width="272" height="272" fill="white"/>
</clipPath>
</defs>
</svg>
